HIERARCHY
ROOT hip
{
  OFFSET 0 0 0
  CHANNELS 6 Xposition Yposition Zposition Zrotation Yrotation Xrotation
  JOINT abdomen
  {
    OFFSET 0 20.6881 -0.73152
    CHANNELS 3 Zrotation Xrotation Yrotation
    JOINT chest
    {
      OFFSET 0 11.7043 -0.48768
      CHANNELS 3 Zrotation Xrotation Yrotation
      JOINT neck
      {
        OFFSET 0 22.1894 -2.19456
        CHANNELS 3 Zrotation Xrotation Yrotation
        JOINT head
        {
          OFFSET -0.24384 7.07133 1.2192
          CHANNELS 3 Zrotation Xrotation Yrotation
          JOINT leftEye
          {
            OFFSET 4.14528 8.04674 8.04672
            CHANNELS 3 Zrotation Xrotation Yrotation
            End Site
            {
              OFFSET 1 0 0
            }
          }
          JOINT rightEye
          {
            OFFSET -3.6576 8.04674 8.04672
            CHANNELS 3 Zrotation Xrotation Yrotation
            End Site
            {
              OFFSET 1 0 0
            }
          }
        }
      }
      JOINT rCollar
      {
        OFFSET -2.68224 19.2634 -4.8768
        CHANNELS 3 Zrotation Xrotation Yrotation
        JOINT rShldr
        {
          OFFSET -8.77824 -1.95073 1.46304
          CHANNELS 3 Zrotation Xrotation Yrotation
          JOINT rForeArm
          {
            OFFSET -28.1742 -1.7115 0.48768
            CHANNELS 3 Zrotation Xrotation Yrotation
            JOINT rHand
            {
              OFFSET -22.5879 0.773209 7.07136
              CHANNELS 3 Zrotation Xrotation Yrotation
              JOINT rThumb1
              {
                OFFSET -1.2192 -0.487915 3.41376
                CHANNELS 3 Zrotation Xrotation Yrotation
                JOINT rThumb2
                {
                  OFFSET -3.37035 -0.52449 3.41376
                  CHANNELS 3 Zrotation Xrotation Yrotation
                  End Site
                  {
                    OFFSET -1.78271 -1.18214 1.43049
                  }
                }
              }
              JOINT rIndex1
              {
                OFFSET -7.75947 0.938293 5.60832
                CHANNELS 3 Zrotation Xrotation Yrotation
                JOINT rIndex2
                {
                  OFFSET -2.54057 -0.884171 1.56538
                  CHANNELS 3 Zrotation Xrotation Yrotation
                  End Site
                  {
                    OFFSET -1.62519 -0.234802 1.16502
                  }
                }
              }
              JOINT rMid1
              {
                OFFSET -8.24714 1.18213 3.41376
                CHANNELS 3 Zrotation Xrotation Yrotation
                JOINT rMid2
                {
                  OFFSET -3.10165 -0.590103 1.0647
                  CHANNELS 3 Zrotation Xrotation Yrotation
                  End Site
                  {
                    OFFSET -2.48547 -0.328903 0.83742
                  }
                }
              }
              JOINT rRing1
              {
                OFFSET -8.82822 0.546677 1.51678
                CHANNELS 3 Zrotation Xrotation Yrotation
                JOINT rRing2
                {
                  OFFSET -2.60934 -0.819778 -0.0198488
                  CHANNELS 3 Zrotation Xrotation Yrotation
                  End Site
                  {
                    OFFSET -2.33842 -0.294052 0.168128
                  }
                }
              }
              JOINT rPinky1
              {
                OFFSET -8.27202 -0.0477905 -0.4584
                CHANNELS 3 Zrotation Xrotation Yrotation
                JOINT rPinky2
                {
                  OFFSET -1.82734 -0.647385 -0.700984
                  CHANNELS 3 Zrotation Xrotation Yrotation
                  End Site
                  {
                    OFFSET -1.69225 -0.51767 -0.607171
                  }
                }
              }
            }
          }
        }
      }
      JOINT lCollar
      {
        OFFSET 2.68224 19.2634 -4.8768
        CHANNELS 3 Zrotation Xrotation Yrotation
        JOINT lShldr
        {
          OFFSET 8.77824 -1.95073 1.46304
          CHANNELS 3 Zrotation Xrotation Yrotation
          JOINT lForeArm
          {
            OFFSET 28.1742 -1.7115 0.48768
            CHANNELS 3 Zrotation Xrotation Yrotation
            JOINT lHand
            {
              OFFSET 22.5879 0.773209 7.07136
              CHANNELS 3 Zrotation Xrotation Yrotation
              JOINT lThumb1
              {
                OFFSET 1.2192 -0.487915 3.41376
                CHANNELS 3 Zrotation Xrotation Yrotation
                JOINT lThumb2
                {
                  OFFSET 3.37035 -0.52449 3.41376
                  CHANNELS 3 Zrotation Xrotation Yrotation
                  End Site
                  {
                    OFFSET 1.78271 -1.18214 1.43049
                  }
                }
              }
              JOINT lIndex1
              {
                OFFSET 7.75947 0.938293 5.60832
                CHANNELS 3 Zrotation Xrotation Yrotation
                JOINT lIndex2
                {
                  OFFSET 2.54057 -0.884171 1.56538
                  CHANNELS 3 Zrotation Xrotation Yrotation
                  End Site
                  {
                    OFFSET 1.62519 -0.234802 1.16502
                  }
                }
              }
              JOINT lMid1
              {
                OFFSET 8.24714 1.18213 3.41376
                CHANNELS 3 Zrotation Xrotation Yrotation
                JOINT lMid2
                {
                  OFFSET 3.10165 -0.590103 1.0647
                  CHANNELS 3 Zrotation Xrotation Yrotation
                  End Site
                  {
                    OFFSET 2.48547 -0.328903 0.83742
                  }
                }
              }
              JOINT lRing1
              {
                OFFSET 8.82822 0.546677 1.51678
                CHANNELS 3 Zrotation Xrotation Yrotation
                JOINT lRing2
                {
                  OFFSET 2.60934 -0.819778 -0.0198488
                  CHANNELS 3 Zrotation Xrotation Yrotation
                  End Site
                  {
                    OFFSET 2.33842 -0.294052 0.168128
                  }
                }
              }
              JOINT lPinky1
              {
                OFFSET 8.27202 -0.0477905 -0.4584
                CHANNELS 3 Zrotation Xrotation Yrotation
                JOINT lPinky2
                {
                  OFFSET 1.82734 -0.647385 -0.700984
                  CHANNELS 3 Zrotation Xrotation Yrotation
                  End Site
                  {
                    OFFSET 1.69225 -0.51767 -0.607171
                  }
                }
              }
            }
          }
        }
      }
    }
  }
  JOINT rButtock
  {
    OFFSET -8.77824 4.35084 1.2192
    CHANNELS 3 Zrotation Xrotation Yrotation
    JOINT rThigh
    {
      OFFSET 0 -1.70687 -2.19456
      CHANNELS 3 Zrotation Xrotation Yrotation
      JOINT rShin
      {
        OFFSET 0 -36.8199 0.73152
        CHANNELS 3 Zrotation Xrotation Yrotation
        JOINT rFoot
        {
          OFFSET 0.73152 -45.1104 -5.12064
          CHANNELS 3 Zrotation Xrotation Yrotation
          End Site
          {
            OFFSET -1.1221 -3.69964 12.103
          }
        }
      }
    }
  }
  JOINT lButtock
  {
    OFFSET 8.77824 4.35084 1.2192
    CHANNELS 3 Zrotation Xrotation Yrotation
    JOINT lThigh
    {
      OFFSET 0 -1.70687 -2.19456
      CHANNELS 3 Zrotation Xrotation Yrotation
      JOINT lShin
      {
        OFFSET 0 -36.8199 0.73152
        CHANNELS 3 Zrotation Xrotation Yrotation
        JOINT lFoot
        {
          OFFSET -0.73152 -45.1104 -5.12064
          CHANNELS 3 Zrotation Xrotation Yrotation
          End Site
          {
            OFFSET 1.1221 -3.69964 12.103
          }
        }
      }
    }
  }
}
MOTION
Frames:	4
Frame Time:	0.00833333
-3.4313 83.9983 32.2556 -1.0971 -0.8299 1.6365 -1.08378 4.92311 1.59146 1.63488 -1.02286 0.446458 -1.6251 4.02509 -2.60017 4.98467 16.9815 -5.50291 -0.0 0.0 0.0 -0.0 0.0 0.0 -4.48723e-14 -2.52588e-14 -3.67402e-15 68.6056 60.5503 11.7725 -28.4286 -35.2581 75.783 -0.88756 25.7228 3.88272 9.19834e-10 3.71759e-09 -4.03781e-10 1.58114e-09 6.42804e-09 -7.15057e-10 9.19855e-10 3.71763e-09 -4.03797e-10 7.73091 5.47488 0.417314 9.19832e-10 3.71759e-09 -4.03779e-10 2.90554 0.965183 0.102902 9.19837e-10 3.71759e-09 -4.03776e-10 10.2786 0.731801 0.0259123 9.1983e-10 3.7176e-09 -4.03772e-10 2.22167 -0.733487 -0.20892 -4.49154e-14 -2.5257e-14 -3.95085e-15 -7.76956 39.5168 -64.1717 26.6954 -25.3632 -59.8114 0.0244685 4.44854 -0.626485 2.87616e-10 -8.12464e-10 4.20738e-12 4.96599e-10 -1.40352e-09 7.11863e-12 2.87615e-10 -8.12486e-10 4.2274e-12 -7.73091 5.47488 -0.417314 2.87616e-10 -8.12467e-10 4.21289e-12 -2.90554 0.965183 -0.102902 2.87607e-10 -8.12462e-10 4.21084e-12 -10.2786 0.731801 -0.0259123 2.87623e-10 -8.12463e-10 4.20283e-12 -2.22167 -0.733487 0.20892 -2.03217e-16 0.0 -3.88251e-19 -21.5331 -2.96849 -0.0142181 -0.000660499 -0.475283 -0.00554228 0.436631 3.44068 -0.00684289 2.03217e-16 0.0 3.88251e-19 6.73664 -11.277 -5.69465 0.0613131 22.651 -0.567437 4.69859 -16.0572 15.5875
-3.44912 84.0038 32.2917 -1.1142 -0.8313 1.5493 -1.07334 5.0635 1.53524 1.72533 -1.14504 0.432886 -1.72165 4.20618 -2.62202 5.14354 16.7746 -5.54558 -0.0 0.0 0.0 -0.0 0.0 0.0 -3.55811e-14 3.37884e-15 -8.80554e-15 68.7736 60.4995 11.1511 -28.4293 -35.3662 75.9663 -0.917218 26.0877 3.94721 2.6181e-10 1.07252e-09 -1.47878e-10 4.49811e-10 1.85228e-09 -2.59825e-10 2.61825e-10 1.07254e-09 -1.47891e-10 7.73091 5.47488 0.417314 2.61809e-10 1.07252e-09 -1.47879e-10 2.90554 0.965183 0.102902 2.61815e-10 1.07251e-09 -1.47876e-10 10.2786 0.731801 0.0259123 2.61808e-10 1.07252e-09 -1.47873e-10 2.22167 -0.733487 -0.20892 -3.55675e-14 3.38026e-15 -9.05091e-15 -7.43846 39.8693 -63.757 26.9383 -26.123 -60.9915 0.0232561 4.32273 -0.608712 4.18359e-10 -1.29171e-09 6.91631e-11 7.22839e-10 -2.23283e-09 1.19538e-10 4.18352e-10 -1.29172e-09 6.91842e-11 -7.73091 5.47488 -0.417314 4.18358e-10 -1.29171e-09 6.91667e-11 -2.90554 0.965183 -0.102902 4.18345e-10 -1.2917e-09 6.91679e-11 -10.2786 0.731801 -0.0259123 4.18366e-10 -1.29171e-09 6.91566e-11 -2.22167 -0.733487 0.20892 -2.03217e-16 0.0 -3.88251e-19 -21.5353 -2.97133 -0.0142091 -0.000655155 -0.475955 -0.00549435 0.438846 3.44422 -0.0071159 2.03217e-16 0.0 3.88251e-19 6.82194 -11.1789 -5.64233 0.0606039 22.6523 -0.567693 4.67659 -16.0556 15.537
-3.4646 84.0093 32.3232 -1.1429 -0.8345 1.4625 -1.06331 5.19918 1.49265 1.82219 -1.26905 0.423302 -1.8206 4.38991 -2.64892 5.31134 16.5806 -5.59937 -0.0 0.0 0.0 -0.0 0.0 0.0 -2.4191e-14 3.05256e-14 -1.33733e-14 68.8865 60.3684 10.5988 -28.4303 -35.4106 76.0364 -0.959844 26.6302 4.04257 -3.88536e-10 -1.54229e-09 1.05854e-10 -6.68334e-10 -2.67099e-09 1.91498e-10 -3.88529e-10 -1.5423e-09 1.05845e-10 7.73091 5.47488 0.417314 -3.88538e-10 -1.54229e-09 1.05849e-10 2.90554 0.965183 0.102902 -3.8853e-10 -1.54231e-09 1.05854e-10 10.2786 0.731801 0.0259123 -3.88538e-10 -1.54229e-09 1.05855e-10 2.22167 -0.733487 -0.20892 -2.41285e-14 3.05265e-14 -1.35888e-14 -7.03059 40.2131 -63.429 27.1487 -26.8383 -62.1535 0.0223018 4.22935 -0.595517 5.0645e-10 -1.64829e-09 1.294e-10 8.75394e-10 -2.85007e-09 2.23864e-10 5.06437e-10 -1.64828e-09 1.29422e-10 -7.73091 5.47488 -0.417314 5.0645e-10 -1.6483e-09 1.29401e-10 -2.90554 0.965183 -0.102902 5.06432e-10 -1.64828e-09 1.29405e-10 -10.2786 0.731801 -0.0259123 5.06457e-10 -1.64829e-09 1.29391e-10 -2.22167 -0.733487 0.20892 -2.03217e-16 0.0 -3.88251e-19 -21.5376 -2.97415 -0.0141985 -0.000649126 -0.476588 -0.00544048 0.441127 3.4477 -0.00739924 2.03217e-16 0.0 3.88251e-19 6.90882 -11.0825 -5.59105 0.0598415 22.6543 -0.567924 4.65463 -16.0536 15.4872
-3.48909 84.0141 32.3471 -1.2152 -0.8582 1.3905 -1.06872 5.27801 1.48798 1.90004 -1.35081 0.423675 -1.889 4.52527 -2.67996 5.44653 16.4797 -5.66548 -0.0 0.0 0.0 -0.0 0.0 0.0 -1.02728e-14 4.61178e-14 -1.47101e-14 68.8188 60.1379 10.298 -28.4318 -35.3682 75.9555 -1.02218 27.4407 4.18495 -7.80176e-10 -3.10088e-09 2.49451e-10 -1.3419e-09 -5.36734e-09 4.47258e-10 -7.80173e-10 -3.1009e-09 2.49445e-10 7.73091 5.47488 0.417314 -7.80177e-10 -3.10087e-09 2.49445e-10 2.90554 0.965183 0.102902 -7.80168e-10 -3.1009e-09 2.49449e-10 10.2786 0.731801 0.0259123 -7.80177e-10 -3.10087e-09 2.49451e-10 2.22167 -0.733487 -0.20892 -1.02027e-14 4.61184e-14 -1.49089e-14 -6.53868 40.5043 -63.2609 27.3071 -27.4235 -63.1474 0.0228262 4.30897 -0.606742 4.72923e-10 -1.61423e-09 1.97223e-10 8.17834e-10 -2.79206e-09 3.41502e-10 4.72906e-10 -1.61421e-09 1.97245e-10 -7.73091 5.47488 -0.417314 4.72923e-10 -1.61423e-09 1.97223e-10 -2.90554 0.965183 -0.102902 4.72902e-10 -1.61421e-09 1.97229e-10 -10.2786 0.731801 -0.0259123 4.7293e-10 -1.61423e-09 1.97213e-10 -2.22167 -0.733487 0.20892 -2.03217e-16 0.0 -3.88251e-19 -21.539 -2.97597 -0.0141974 -0.000647859 -0.477941 -0.00542777 0.442251 3.45089 -0.00752061 2.03217e-16 0.0 3.88251e-19 6.95699 -11.0021 -5.55688 0.0598977 22.6511 -0.568033 4.64756 -16.0621 15.4677
